<svg width="14" height="10" viewBox="0 0 14 10" fill="none" xmlns="http://www.w3.org/2000/svg">
<path d="M8.08325 9.39591C7.91659 9.22925 7.83659 9.02786 7.84325 8.79175C7.85047 8.55564 7.93742 8.35425 8.10408 8.18758L10.4583 5.83341H1.16659C0.930474 5.83341 0.732419 5.75341 0.572419 5.59341C0.412974 5.43397 0.333252 5.23619 0.333252 5.00008C0.333252 4.76397 0.412974 4.56591 0.572419 4.40591C0.732419 4.24647 0.930474 4.16675 1.16659 4.16675H10.4583L8.08325 1.79175C7.91659 1.62508 7.83325 1.42703 7.83325 1.19758C7.83325 0.968692 7.91659 0.770914 8.08325 0.604248C8.24992 0.437581 8.44797 0.354248 8.67742 0.354248C8.90631 0.354248 9.10408 0.437581 9.27075 0.604248L13.0833 4.41675C13.1666 4.50008 13.2258 4.59036 13.2608 4.68758C13.2952 4.7848 13.3124 4.88897 13.3124 5.00008C13.3124 5.11119 13.2952 5.21536 13.2608 5.31258C13.2258 5.4098 13.1666 5.50008 13.0833 5.58341L9.24992 9.41675C9.09714 9.56952 8.90631 9.64592 8.67742 9.64592C8.44797 9.64592 8.24992 9.56258 8.08325 9.39591Z" fill="#01ACE4"/>
</svg>
