<svg width="41" height="41" viewBox="0 0 41 41" fill="none" xmlns="http://www.w3.org/2000/svg">
<g clip-path="url(#clip0_6589_11875)">
<path d="M-0.00488281 22.4187C0.175828 22.1104 0.441578 21.9616 0.792369 21.8978C1.43017 21.7809 2.05734 21.632 2.75892 21.4832C2.35498 20.8986 1.99356 20.3671 1.62151 19.8356C1.2282 19.2615 1.24946 19.0383 1.73844 18.5493C2.31246 17.9753 2.88648 17.3907 3.47113 16.8273C3.87508 16.434 4.1302 16.4127 4.59792 16.7316C5.16131 17.1143 5.71407 17.497 6.34124 17.9222C6.47943 17.2631 6.60699 16.6572 6.73455 16.0513C6.88337 15.3391 6.97904 15.2434 7.66999 15.0946C7.78692 13.5213 8.12708 11.9906 8.78615 10.5449C10.3062 7.26024 12.7511 4.97479 16.1315 3.68856C17.8004 3.06139 19.5331 2.80627 21.3083 2.95509C21.7229 2.98698 22.0524 2.90194 22.3713 2.62556C22.7859 2.27476 23.243 1.95586 23.6788 1.63696C24.3272 1.14798 24.6036 1.1905 25.1032 1.84956C25.5391 2.42358 25.9643 2.99761 26.4001 3.58226C26.5914 3.84801 26.8253 4.03935 27.1761 3.96494C27.5375 3.89053 27.6863 3.62478 27.7395 3.27399C27.8564 2.4661 27.9627 1.66885 28.1009 0.860971C28.1859 0.32947 28.4836 0.127499 29.0044 0.20191C30.2482 0.37199 31.4812 0.5527 32.725 0.722781C33.3415 0.807821 33.5541 1.10546 33.4691 1.75389C33.3628 2.50862 33.2565 3.26336 33.1502 4.00746C33.097 4.34762 33.1395 4.65589 33.4691 4.84723C33.7986 5.03857 34.0856 4.91101 34.3514 4.69841C34.9679 4.23069 35.5844 3.76297 36.2116 3.30588C36.69 2.94446 37.0407 2.99761 37.4128 3.47596C38.1569 4.46455 38.901 5.45314 39.6451 6.45236C40.0278 6.9626 39.9746 7.2815 39.4538 7.67482C38.8479 8.13191 38.2419 8.589 37.6254 9.04609C37.3384 9.25869 37.1364 9.51381 37.2427 9.89649C37.349 10.2579 37.636 10.3642 37.9762 10.4067C38.7416 10.513 39.5069 10.6193 40.2723 10.7363C40.8463 10.8213 41.0695 11.1402 40.9845 11.7142C40.8038 12.926 40.6337 14.1379 40.4636 15.3603C40.3679 16.0088 40.1022 16.2107 39.4644 16.1151C38.699 16.0088 37.9337 15.9025 37.1683 15.7855C36.8388 15.743 36.5518 15.7855 36.3604 16.0832C36.1585 16.4021 36.2648 16.6891 36.4667 16.9655C36.9238 17.5714 37.3809 18.1773 37.838 18.7938C38.2526 19.3466 38.21 19.6655 37.6679 20.0801C36.7006 20.8135 35.7226 21.5364 34.7553 22.2592C34.2238 22.6525 33.9049 22.61 33.5009 22.0891C33.0439 21.4832 32.5868 20.8773 32.1297 20.2608C31.9277 19.9844 31.6832 19.7824 31.3218 19.8781C30.9391 19.9738 30.8222 20.282 30.769 20.6328C30.6627 21.3982 30.5564 22.1635 30.4395 22.9289C30.3651 23.4817 30.0887 23.7049 29.5359 23.6305C28.2816 23.4604 27.0273 23.2903 25.7729 23.099C25.1564 23.0033 24.9863 22.7588 25.0607 22.1316C25.1458 21.4301 25.2521 20.7285 25.3584 20.0375C25.3796 19.9206 25.4328 19.7824 25.3902 19.6867C25.3052 19.4529 25.2308 19.1765 25.0607 19.017C24.8375 18.8044 24.5292 18.8895 24.2847 19.0702C23.6575 19.5379 23.0197 20.0163 22.3926 20.484C21.8186 20.9092 21.5103 20.8667 21.0851 20.3033C20.3622 19.3466 19.6394 18.3792 18.9272 17.4225C18.5232 16.8804 18.5658 16.5509 19.1185 16.1469C19.7244 15.6899 20.3304 15.2328 20.9469 14.7757C21.2339 14.5631 21.404 14.3079 21.3083 13.9572C21.2126 13.617 20.9469 13.4894 20.6174 13.4469C19.8626 13.3512 19.1079 13.2343 18.3638 13.128C17.6835 13.0323 17.4815 12.7666 17.5772 12.0969C17.7473 10.8638 17.928 9.64137 18.1087 8.41892C18.1937 7.8449 18.4914 7.64293 19.0547 7.71734C19.8307 7.82364 20.6174 7.92994 21.3934 8.0575C21.7335 8.11065 22.0099 8.0575 22.2012 7.75986C22.3926 7.46222 22.3182 7.1752 22.1162 6.90945C21.6485 6.29291 21.1808 5.67637 20.7237 5.0492C20.5748 4.8366 20.4792 4.59211 20.3091 4.25195C19.65 4.33699 18.8847 4.36888 18.1406 4.53896C14.1012 5.46377 11.2311 7.8449 9.76411 11.7142C8.28654 15.6048 8.86056 19.3147 11.2948 22.7057C12.124 23.875 13.1976 24.7892 14.3882 25.5758C15.3236 26.1923 16.0146 27.0108 16.3122 28.0951C16.4398 28.5628 16.5035 29.0624 16.5248 29.5514C16.5567 30.3805 16.5248 31.2097 16.5354 32.0282C16.5461 32.953 17.0776 33.5058 18.0024 33.5164C19.7457 33.527 21.4997 33.527 23.243 33.5164C24.1784 33.5058 24.6993 32.9636 24.6993 32.0282C24.6993 31.2097 24.6887 30.4018 24.6993 29.5833C24.7312 27.9463 25.3902 26.6281 26.7296 25.6608C27.2611 25.2781 27.782 24.8848 28.3454 24.4703C28.6218 24.7785 28.9088 25.1081 29.2489 25.4801C28.7281 25.8734 28.271 26.2667 27.7607 26.5963C26.5702 27.3722 26.0174 28.4565 26.0599 29.8703C26.0812 30.6144 26.0706 31.3691 26.0599 32.1132C26.0599 33.0381 25.6666 33.7822 24.9438 34.3562C24.8162 34.4625 24.7099 34.6751 24.7099 34.8451C24.6887 35.94 24.6993 37.0349 24.6993 38.1298C24.6887 39.8413 23.5512 40.9999 21.8398 41.0106C21.0213 41.0212 20.2134 41.0212 19.3949 41.0106C17.6941 40.9893 16.5461 39.8413 16.5248 38.1298C16.5142 37.0243 16.5354 35.9188 16.5142 34.8026C16.5142 34.6538 16.4079 34.4518 16.2909 34.3562C15.5575 33.7822 15.1854 33.0381 15.1642 32.1132C15.1535 31.5286 15.1642 30.9439 15.1642 30.2424C14.8346 30.5613 14.5689 30.8164 14.3031 31.0821C13.8141 31.5711 13.5909 31.5924 13.0169 31.1991C12.4854 30.8376 11.9433 30.4656 11.3692 30.0616C11.2098 30.7951 11.0716 31.4648 10.9228 32.1451C10.8059 32.666 10.6039 32.8361 10.0617 32.8361C9.2645 32.8361 8.45662 32.8361 7.65936 32.8361C7.14912 32.8361 6.93652 32.666 6.81959 32.1664C6.67077 31.4967 6.53258 30.8164 6.37313 30.0723C5.84163 30.4337 5.35265 30.7739 4.86367 31.1034C4.08768 31.6349 3.97075 31.6243 3.30105 30.9546C2.76955 30.4231 2.23805 29.9022 1.71718 29.3707C1.30261 28.9561 1.28135 28.701 1.62151 28.212C1.99356 27.6593 2.37624 27.1171 2.79081 26.5006C2.14238 26.3624 1.53647 26.2242 0.930559 26.1073C0.547878 26.0329 0.207718 25.9266 0.0163772 25.5545C-0.00488281 24.5021 -0.00488281 23.4604 -0.00488281 22.4187ZM34.2769 20.8986C35.021 20.3352 35.7333 19.8037 36.4455 19.2615C36.0415 18.73 35.6695 18.2411 35.3081 17.7414C34.7553 16.9867 34.6703 16.2001 35.1486 15.3816C35.5844 14.6268 36.4136 14.2973 37.3596 14.4461C37.9337 14.5312 38.5183 14.6162 39.1455 14.7013C39.273 13.7977 39.4006 12.926 39.5388 12.0225C39.3262 11.9906 39.1349 11.9587 38.9542 11.9268C38.4439 11.8418 37.923 11.7886 37.4128 11.6823C36.6262 11.5123 36.1053 11.0126 35.8927 10.2473C35.6801 9.47129 35.8608 8.74845 36.488 8.21695C37.0301 7.74923 37.6148 7.33465 38.21 6.87756C37.7423 6.25039 37.2852 5.64448 36.8388 5.03857C36.7644 4.93227 36.6793 4.8366 36.573 4.71967C36.0309 5.12361 35.5207 5.52755 34.9892 5.8996C34.0962 6.52677 33.0013 6.42047 32.2891 5.67637C31.7151 5.07046 31.6726 4.34762 31.7895 3.58226C31.8746 3.07202 31.9383 2.56177 32.0234 2.00901C31.1092 1.88145 30.2375 1.75389 29.334 1.62633C29.2383 2.26413 29.1426 2.85942 29.0682 3.44407C28.9407 4.36888 28.4517 4.99605 27.5588 5.2618C26.6977 5.50629 25.9005 5.18739 25.2946 4.37951C24.9332 3.90116 24.5717 3.42281 24.1997 2.93383C23.4662 3.48659 22.754 4.01809 22.0312 4.56022C22.4351 5.10235 22.8178 5.60196 23.1898 6.1122C23.7213 6.8563 23.8064 7.65356 23.328 8.44018C22.8497 9.2268 22.1162 9.52444 21.202 9.39688C20.5855 9.31184 19.9689 9.2268 19.3311 9.14176C19.2036 10.0559 19.076 10.9276 18.9591 11.8312C19.6181 11.9268 20.2241 12.0119 20.83 12.0969C21.9993 12.267 22.7434 13.1705 22.6583 14.3292C22.6052 14.9883 22.265 15.4773 21.7441 15.8599C21.2552 16.2214 20.7768 16.5934 20.2772 16.9655C20.7874 17.6458 21.2552 18.2729 21.7229 18.9001C21.776 18.9745 21.8398 19.0383 21.9142 19.134C22.4245 18.7513 22.9241 18.3792 23.4237 18.0072C23.9339 17.6351 24.4867 17.4544 25.1139 17.5926C26.2832 17.8477 26.8997 18.847 26.7084 20.1119C26.6233 20.686 26.5489 21.26 26.4639 21.8446C27.3993 21.9722 28.2603 22.0998 29.1533 22.2167C29.2383 21.6001 29.3127 21.0474 29.3871 20.4946C29.5253 19.4741 30.0675 18.8044 30.9391 18.5706C31.8001 18.3474 32.5761 18.6556 33.2033 19.4741C33.5541 19.9312 33.9049 20.399 34.2769 20.8986ZM9.64718 31.4542C9.76411 30.9333 9.85978 30.4337 9.97671 29.9447C10.2531 28.7329 11.2417 28.3502 12.2728 29.0412C12.6874 29.3282 13.1019 29.6046 13.5484 29.9128C13.963 29.4876 14.335 29.073 14.7496 28.6904C14.9622 28.499 14.9409 28.3502 14.8453 28.1057C14.3669 27.0108 13.3039 26.5644 12.4641 25.8734C11.2523 27.925 9.25387 28.3289 7.77629 27.9356C6.11801 27.4998 4.83178 26.0541 4.768 24.3002C4.67233 21.8659 6.01171 20.4627 8.29716 19.8993C8.12708 19.1978 7.96763 18.5068 7.79755 17.784C7.76566 17.869 7.7444 17.9115 7.73377 17.9647C7.36172 19.3253 6.4688 19.6442 5.31013 18.847C4.92745 18.5812 4.54477 18.3261 4.15146 18.0497C3.75815 18.4537 3.38609 18.8257 3.02467 19.1978C3.00341 19.2297 2.98215 19.2615 2.95026 19.3253C3.2479 19.7612 3.55617 20.1864 3.84319 20.6328C4.45973 21.5683 4.05579 22.5675 2.98215 22.8226C2.45065 22.9502 1.91915 23.0565 1.39828 23.1734C1.39828 23.7368 1.39828 24.2577 1.39828 24.7892C1.89789 24.8955 2.38687 25.0018 2.86522 25.1081C4.11957 25.3951 4.50225 26.3837 3.76878 27.4573C3.49239 27.8612 3.21601 28.2652 2.97152 28.616C3.39672 29.0624 3.79004 29.4664 4.19398 29.8916C4.61918 29.6046 5.04438 29.3069 5.46958 29.0199C6.43691 28.3715 7.44676 28.7648 7.70188 29.9022C7.81881 30.4231 7.92511 30.9333 8.04204 31.4648C8.57355 31.4542 9.09442 31.4542 9.64718 31.4542ZM9.04127 26.6813C9.91293 26.6494 10.7314 26.1604 11.2629 25.1825C11.3799 24.9699 11.348 24.8317 11.1885 24.6616C10.3488 23.7793 9.62592 22.812 9.11568 21.6958C8.91371 21.26 8.64796 21.2281 8.26528 21.3238C6.91526 21.632 6.01171 22.8651 6.1499 24.2045C6.27746 25.6289 7.37235 26.6494 9.04127 26.6813ZM23.2961 37.6196C21.4571 37.6196 19.6713 37.6196 17.8642 37.6196C17.8642 37.8747 17.8536 38.1086 17.8642 38.3318C17.9173 39.0653 18.4488 39.6074 19.1929 39.6287C20.1284 39.6499 21.0532 39.6499 21.9886 39.6287C22.7115 39.6074 23.2536 39.0653 23.2961 38.3637C23.3068 38.1298 23.2961 37.8853 23.2961 37.6196ZM17.8854 36.1952C19.6925 36.1952 21.489 36.1952 23.2855 36.1952C23.2855 35.7487 23.2855 35.3235 23.2855 34.8877C21.4784 34.8877 19.6819 34.8877 17.8854 34.8877C17.8854 35.3448 17.8854 35.77 17.8854 36.1952Z" fill="white"/>
<path d="M8.96679 0C9.42388 1.79647 9.8916 3.60358 10.3593 5.44257C9.92349 5.5595 9.50892 5.6658 9.05182 5.79336C8.5841 3.98626 8.12701 2.18978 7.66992 0.382681C8.07386 0.255121 8.44591 0.12756 8.81796 0.01063C8.86048 0 8.91364 0 8.96679 0Z" fill="white"/>
<path d="M21.2444 28.7225C20.8085 28.7225 20.3833 28.7225 19.9688 28.7225C19.8412 28.2123 19.7668 27.6808 19.5967 27.1918C19.2034 26.1076 18.4593 25.2891 17.3963 24.832C15.9719 24.2154 14.6856 23.4394 13.6014 22.302C9.97654 18.4752 10.2954 12.1185 14.2923 8.69558C14.6644 8.37668 15.0683 8.08967 15.4935 7.74951C15.7486 8.14282 15.9719 8.50424 16.227 8.89755C15.9612 9.09952 15.7061 9.28023 15.4616 9.48221C10.7313 13.3409 11.6986 20.7607 17.2687 23.2693C18.3955 23.769 19.4266 24.3642 20.1601 25.3954C20.8723 26.3733 21.2444 27.4788 21.2444 28.7225Z" fill="white"/>
<path d="M1.82324 4.80474C2.09962 4.42206 2.35474 4.07127 2.62049 3.69922C4.215 4.83663 5.77761 5.95278 7.38274 7.10083C7.11699 7.47288 6.86187 7.82367 6.59612 8.20635C4.99099 7.06894 3.41775 5.95278 1.82324 4.80474Z" fill="white"/>
<path d="M1.02582 13.0748C0.90889 12.6177 0.813219 12.2137 0.696289 11.7566C2.51402 11.2995 4.3105 10.8531 6.12823 10.396C6.23453 10.8425 6.34083 11.257 6.45776 11.7141C4.64003 12.1712 2.85418 12.6177 1.02582 13.0748Z" fill="white"/>
<path d="M32.3955 29.9553C32.6931 29.5939 32.9695 29.2644 33.2672 28.9136C34.6278 30.0404 35.9672 31.1671 37.3491 32.3152C37.0515 32.666 36.7751 33.0061 36.4774 33.3569C35.1168 32.2195 33.7774 31.1034 32.3955 29.9553Z" fill="white"/>
<path d="M30.7481 35.536C30.3123 35.536 29.8977 35.536 29.4619 35.536C29.4619 33.9522 29.4619 32.3895 29.4619 30.8057C29.8977 30.8057 30.3017 30.8057 30.7481 30.8057C30.7481 32.3789 30.7481 33.9415 30.7481 35.536Z" fill="white"/>
<path d="M38.2637 25.374C38.2637 25.8311 38.2637 26.2351 38.2637 26.6815C36.6904 26.6815 35.1278 26.6815 33.5439 26.6815C33.5439 26.2351 33.5439 25.8205 33.5439 25.374C35.1172 25.374 36.6692 25.374 38.2637 25.374Z" fill="white"/>
<path d="M19.9268 32.1134C19.9268 31.4544 19.9268 30.8059 19.9268 30.1362C20.3626 30.1362 20.7878 30.1362 21.2343 30.1362C21.2343 30.7847 21.2343 31.4331 21.2343 32.1134C20.8197 32.1134 20.3945 32.1134 19.9268 32.1134Z" fill="white"/>
<path d="M34.6811 11.9482C34.6704 14.9353 32.2362 17.3589 29.2491 17.3696C26.2621 17.3696 23.7853 14.9034 23.7959 11.9164C23.8066 8.90806 26.2515 6.47378 29.2598 6.48441C32.2681 6.49504 34.6917 8.93995 34.6811 11.9482ZM33.3204 11.927C33.3204 9.68405 31.5027 7.84505 29.2704 7.83442C27.0275 7.82379 25.1566 9.68405 25.1672 11.9164C25.1778 14.1274 27.0381 15.9876 29.2491 15.9983C31.4602 16.0089 33.3098 14.1593 33.3204 11.927Z" fill="white"/>
</g>
<defs>
<clipPath id="clip0_6589_11875">
<rect width="40.9894" height="41" fill="white" transform="translate(-0.00488281)"/>
</clipPath>
</defs>
</svg>
