<svg width="51" height="60" viewBox="0 0 51 60" fill="none" xmlns="http://www.w3.org/2000/svg">
<g clip-path="url(#clip0_4891_8903)">
<path d="M25.7422 0C19.071 0.00774179 12.6763 2.66096 7.95932 7.37793C3.24235 12.0949 0.58913 18.4907 0.581388 25.1619C0.567011 30.5281 2.28679 35.7549 5.48416 40.0649L7.04026 38.9158C4.29302 35.2019 2.72918 30.746 2.55444 26.1297H11.9043C11.9596 29.8656 12.5049 33.5795 13.5268 37.1739L15.3826 36.6264C14.4127 33.2101 13.894 29.6809 13.8387 26.1297H24.7745V34.8392H26.7099V26.1297H37.6458C37.5905 29.6809 37.0696 33.2101 36.0974 36.6264L37.9532 37.1739C38.9774 33.5795 39.5248 29.8667 39.5812 26.1297H48.9344C48.7608 30.7471 47.1969 35.2041 44.4486 38.9191L46.0003 40.0649C49.1976 35.7549 50.9174 30.5281 50.903 25.1619C50.8953 18.4907 48.2421 12.096 43.5251 7.37903C38.8081 2.66096 32.4134 0.00774179 25.7422 0ZM11.8877 24.1942H2.54117C2.71702 19.8566 4.11275 15.6561 6.5669 12.075C8.75672 12.8646 11.0096 13.4674 13.3023 13.8766C12.4153 17.2454 11.9397 20.7104 11.8877 24.1942V24.1942ZM7.77904 10.4581C10.7419 6.84264 14.7234 4.20158 19.207 2.87884C16.7142 5.44801 14.8794 8.58122 13.8586 12.0119C11.7948 11.6503 9.76205 11.1316 7.77904 10.457V10.4581ZM24.7756 24.1942H13.8243C13.8796 20.8166 14.3507 17.4588 15.2289 14.1973C18.3908 14.6641 21.5804 14.9129 24.7767 14.9417V24.1942H24.7756ZM24.7756 13.0062C21.774 12.9786 18.7779 12.7518 15.8051 12.3294C17.7759 6.56172 21.0352 2.60788 24.7756 2.02061V13.0062V13.0062ZM26.711 2.0195C30.4525 2.60677 33.7118 6.56725 35.6827 12.3305C32.7098 12.7507 29.7126 12.9764 26.711 13.0073V2.0195V2.0195ZM26.711 24.1942V14.9428C29.9073 14.9107 33.0969 14.6641 36.26 14.2018C37.137 17.4622 37.6082 20.8188 37.6635 24.1942H26.7122H26.711ZM37.6281 12.0119C36.6073 8.58122 34.7725 5.44801 32.2796 2.87995C36.7621 4.20048 40.7436 6.83932 43.7054 10.4536C41.7235 11.1316 39.6918 11.6525 37.6281 12.0131V12.0119ZM39.5989 24.1942C39.548 20.7093 39.0725 17.2443 38.1844 13.8744C40.4771 13.4696 42.7299 12.8669 44.9186 12.0739C47.3739 15.655 48.7696 19.8555 48.9455 24.1942H39.5989V24.1942Z" fill="#01ACE4"/>
<path d="M43.1611 58.0645H49.9352C50.1918 58.0645 50.4384 57.9628 50.6198 57.7814C50.8012 57.6 50.9029 57.3534 50.9029 57.0968V51.6775C50.9018 50.9299 50.6463 50.2044 50.1785 49.6215C49.7107 49.0387 49.0571 48.6317 48.3271 48.4702C49.0117 47.8564 49.4165 46.9904 49.4497 46.0714C49.4829 45.1523 49.1411 44.2598 48.5019 43.5984C47.8637 42.9371 46.9834 42.5632 46.0643 42.5632C45.1453 42.5632 44.2649 42.9371 43.6268 43.5984C42.9886 44.2598 42.6469 45.1523 42.6789 46.0714C42.711 46.9904 43.1169 47.8564 43.8015 48.4702C43.3193 48.5808 42.8692 48.7987 42.4843 49.1084C41.8672 48.2125 40.9005 47.6186 39.8222 47.4726C40.6462 46.7914 41.1505 45.8004 41.218 44.7332C41.2854 43.667 40.9083 42.6196 40.1761 41.8399C39.4451 41.0613 38.4232 40.6189 37.3548 40.6189C36.2864 40.6189 35.2645 41.0613 34.5335 41.8399C33.8013 42.6196 33.4242 43.6659 33.4916 44.7332C33.5591 45.7993 34.0634 46.7914 34.8874 47.4726C34.3167 47.5479 33.7692 47.7491 33.2881 48.0643C33.0072 47.0468 32.4023 46.1499 31.5639 45.5084C30.7256 44.8681 29.7004 44.5186 28.6453 44.5153H28.4462C29.3973 43.7621 29.9901 42.6462 30.0841 41.4363C30.1782 40.2263 29.7623 39.033 28.9384 38.1427C28.1144 37.2524 26.9554 36.7469 25.7432 36.7469C24.5311 36.7469 23.372 37.2535 22.5481 38.1427C21.7241 39.033 21.3083 40.2263 21.4023 41.4363C21.4963 42.6462 22.0891 43.761 23.0402 44.5153H22.8411C21.7861 44.5186 20.7597 44.867 19.9214 45.5073C19.0831 46.1477 18.477 47.0457 18.1961 48.0632C17.7139 47.7491 17.1675 47.5467 16.5968 47.4715C17.4208 46.7903 17.9251 45.7993 17.9926 44.7321C18.06 43.6659 17.6829 42.6185 16.9507 41.8388C16.2186 41.0602 15.1978 40.6178 14.1283 40.6178C13.0588 40.6178 12.038 41.0602 11.307 41.8388C10.5748 42.6185 10.1988 43.6648 10.2652 44.7321C10.3315 45.7993 10.8369 46.7903 11.6609 47.4715C10.5826 47.6175 9.61596 48.2114 8.99882 49.1073C8.61395 48.7976 8.16382 48.5786 7.68161 48.4691C8.36621 47.8553 8.77099 46.9893 8.80417 46.0703C8.83735 45.1512 8.49561 44.2587 7.85746 43.5973C7.21932 42.936 6.33897 42.5621 5.4199 42.5621C4.50084 42.5621 3.62049 42.936 2.98235 43.5973C2.3442 44.2587 2.00246 45.1512 2.03453 46.0703C2.06771 46.9893 2.47249 47.8553 3.15709 48.4691C2.42825 48.6317 1.77573 49.0376 1.30791 49.6204C0.840081 50.2033 0.584602 50.9277 0.583496 51.6753V57.0946C0.583496 57.3512 0.685245 57.5978 0.866624 57.7792C1.048 57.9606 1.29463 58.0623 1.55122 58.0623H8.32529C8.32529 58.3189 8.42704 58.5655 8.60842 58.7469C8.7898 58.9283 9.03643 59.03 9.29301 59.03H18.0025C18.0025 59.2866 18.1043 59.5333 18.2857 59.7146C18.467 59.896 18.7137 59.9978 18.9703 59.9978H32.5184C32.775 59.9978 33.0216 59.896 33.203 59.7146C33.3844 59.5333 33.4861 59.2866 33.4861 59.03H42.1956C42.4522 59.03 42.6988 58.9283 42.8802 58.7469C43.0616 58.5655 43.1634 58.3189 43.1634 58.0623L43.1611 58.0645ZM46.0643 44.5164C46.6516 44.5164 47.1802 44.8703 47.4047 45.4122C47.6293 45.9553 47.5054 46.579 47.0907 46.9938C46.6759 47.4085 46.051 47.5335 45.5091 47.3079C44.9672 47.0833 44.6133 46.5536 44.6133 45.9674C44.6133 45.1656 45.2636 44.5164 46.0643 44.5164ZM43.1611 51.6775C43.1611 50.9288 43.7672 50.3227 44.516 50.3227H47.6127C48.3614 50.3227 48.9675 50.9288 48.9675 51.6775V56.1291H43.1611V51.6775ZM5.4199 44.5164C6.00717 44.5164 6.53583 44.8703 6.76034 45.4122C6.98485 45.9553 6.86098 46.579 6.44624 46.9938C6.03151 47.4085 5.40663 47.5335 4.8636 47.3079C4.32168 47.0833 3.96777 46.5536 3.96777 45.9674C3.96777 45.1656 4.61808 44.5164 5.4188 44.5164H5.4199ZM8.32308 56.1291H2.51673V51.6775C2.51673 50.9288 3.1228 50.3227 3.87155 50.3227H6.96826C7.717 50.3227 8.32308 50.9288 8.32308 51.6775V56.1291ZM14.1294 42.5809C14.6426 42.5809 15.1347 42.7844 15.4986 43.1472C15.8614 43.51 16.0649 44.0021 16.0649 44.5164C16.0649 45.0307 15.8614 45.5217 15.4986 45.8856C15.1359 46.2494 14.6437 46.4518 14.1294 46.4518C13.6151 46.4518 13.1241 46.2483 12.7602 45.8856C12.3964 45.5228 12.194 45.0307 12.194 44.5164C12.194 44.0021 12.3975 43.5111 12.7602 43.1472C13.123 42.7833 13.6151 42.5809 14.1294 42.5809ZM18.0003 57.0968H10.2585V51.2905C10.2585 50.7773 10.462 50.2851 10.8248 49.9213C11.1875 49.5574 11.6797 49.355 12.194 49.355H16.0649C16.578 49.355 17.0702 49.5585 17.4341 49.9213C17.7979 50.284 18.0003 50.7762 18.0003 51.2905V57.0968ZM25.7421 38.71C26.3836 38.71 26.9996 38.9644 27.453 39.419C27.9065 39.8735 28.162 40.4884 28.162 41.1299C28.162 41.7714 27.9076 42.3874 27.453 42.8408C26.9985 43.2943 26.3836 43.5498 25.7421 43.5498C25.1006 43.5498 24.4846 43.2954 24.0312 42.8408C23.5777 42.3863 23.3222 41.7714 23.3222 41.1299C23.3222 40.4884 23.5766 39.8724 24.0312 39.419C24.4857 38.9655 25.1006 38.71 25.7421 38.71ZM31.5485 58.0645H19.9358V49.355C19.9358 48.5853 20.2421 47.8465 20.7863 47.3023C21.3304 46.7582 22.0692 46.4518 22.8389 46.4518H28.6453C29.415 46.4518 30.1538 46.7582 30.698 47.3023C31.2421 47.8465 31.5485 48.5853 31.5485 49.355V58.0645ZM37.3548 42.5809C37.868 42.5809 38.3601 42.7844 38.724 43.1472C39.0879 43.51 39.2902 44.0021 39.2902 44.5164C39.2902 45.0307 39.0867 45.5217 38.724 45.8856C38.3612 46.2494 37.8691 46.4518 37.3548 46.4518C36.8405 46.4518 36.3495 46.2483 35.9856 45.8856C35.6217 45.5228 35.4193 45.0307 35.4193 44.5164C35.4193 44.0021 35.6228 43.5111 35.9856 43.1472C36.3484 42.7833 36.8405 42.5809 37.3548 42.5809ZM41.2257 57.0968H33.4839V51.2905C33.4839 50.7773 33.6874 50.2851 34.0502 49.9213C34.4129 49.5574 34.9051 49.355 35.4193 49.355H39.2902C39.8034 49.355 40.2956 49.5585 40.6594 49.9213C41.0233 50.284 41.2257 50.7762 41.2257 51.2905V57.0968Z" fill="#01ACE4"/>
</g>
<defs>
<clipPath id="clip0_4891_8903">
<rect width="50.3217" height="60" fill="white" transform="translate(0.581299)"/>
</clipPath>
</defs>
</svg>
