<svg width="57" height="60" viewBox="0 0 57 60" fill="none" xmlns="http://www.w3.org/2000/svg">
<g clip-path="url(#clip0_4891_8900)">
<path d="M8.81716 31.8405C8.21753 31.8405 7.7317 32.3263 7.7317 32.9249V53.7433C7.7317 54.343 8.21753 54.8288 8.81716 54.8288H15.9175C16.5171 54.8288 17.0019 54.343 17.0019 53.7433V32.9238C17.0019 32.3241 16.516 31.8383 15.9175 31.8383H8.81716V31.8405ZM14.8331 52.6601H9.89824V34.0103H14.8331V52.6601ZM23.0189 23.6361C22.4193 23.6361 21.9335 24.1219 21.9335 24.7216V53.7444C21.9335 54.3441 22.4193 54.8299 23.0189 54.8299H30.1215C30.7211 54.8299 31.2058 54.3441 31.2058 53.7444V24.7205C31.2058 24.1208 30.72 23.635 30.1215 23.635H23.0189V23.6361ZM29.0371 52.6601H24.1033V25.8037H29.0371V52.659V52.6601ZM37.224 17.2689C36.6244 17.2689 36.1396 17.7547 36.1396 18.3543V53.7444C36.1396 54.3441 36.6254 54.8299 37.224 54.8299H44.3265C44.9261 54.8299 45.412 54.3441 45.412 53.7444V18.3522C45.412 17.7525 44.9261 17.2667 44.3265 17.2667H37.224V17.2689ZM43.2421 52.6612H38.3083V19.4365H43.2421V52.659V52.6612ZM0.00875369 27.9648C-0.0448627 27.3685 0.39501 26.8421 0.991356 26.7885C16.5762 25.3825 30.3053 17.3181 41.8164 2.81325L37.7875 3.79367C37.5019 3.87792 37.1955 3.84291 36.9373 3.69409C36.6791 3.54528 36.4941 3.29799 36.423 3.00912C36.353 2.72025 36.4044 2.41496 36.5653 2.16548C36.7272 1.916 36.9833 1.74311 37.2754 1.68731L44.0759 0.0306733C44.3823 -0.043733 44.7073 0.018637 44.9644 0.202465C45.2216 0.386292 45.3846 0.672975 45.4131 0.988108L46.0105 7.8893C46.0619 8.48565 45.621 9.01196 45.0235 9.06339C44.9918 9.06339 44.9601 9.06777 44.9283 9.06777C44.367 9.06667 43.8987 8.63665 43.8494 8.0775L43.5102 4.16898C37.7503 11.4258 31.4061 17.1704 24.6373 21.2562C17.5096 25.5794 9.48681 28.211 1.18284 28.9485C1.15002 28.9485 1.11938 28.9529 1.08436 28.9529C0.525222 28.9507 0.0590874 28.5228 0.00875369 27.9659V27.9648ZM56.8235 58.9135C56.8235 59.5131 56.3377 59.9989 55.7391 59.9989H1.08546C0.48583 59.9989 0 59.5131 0 58.9135C0 58.3138 0.48583 57.828 1.08546 57.828H55.7391C56.3388 57.828 56.8235 58.3149 56.8235 58.9135V58.9135Z" fill="#01ACE4"/>
</g>
<defs>
<clipPath id="clip0_4891_8900">
<rect width="56.8235" height="60" fill="white"/>
</clipPath>
</defs>
</svg>
