<svg width="60" height="60" viewBox="0 0 60 60" fill="none" xmlns="http://www.w3.org/2000/svg">
<g clip-path="url(#clip0_4891_8901)">
<path d="M32.2971 16.546C32.3819 17.7091 32.976 18.5276 33.5701 19.0015C35.2249 22.1893 36.8798 22.7063 37.7709 22.7063C38.662 22.7063 40.3169 22.2324 41.9718 19.0015C42.6083 18.5276 43.1599 17.7091 43.2448 16.546C43.2872 16.1152 43.2872 15.5552 43.075 15.0382C43.2023 13.9613 43.1599 12.3673 42.2688 11.1611C41.802 10.558 40.9534 9.82567 39.5107 9.78259H36.0312C34.546 9.82567 33.6974 10.558 33.273 11.1611C32.3819 12.3673 32.3395 14.0043 32.4668 15.0382C32.2546 15.5552 32.2546 16.1152 32.2971 16.546ZM34.2066 15.5983C34.249 15.5983 34.2914 15.6413 34.2914 15.6413C34.2914 15.6413 33.3155 11.635 36.0736 11.5488H39.4682C42.2264 11.635 41.2504 15.6413 41.2504 15.6413C41.2504 15.6413 41.2928 15.5983 41.3353 15.5983C41.4626 15.5983 41.5899 15.7275 41.5474 16.4168C41.4626 17.4507 40.6564 17.7953 40.6564 17.7953C39.1712 20.897 37.8982 20.9831 37.7709 20.9831C37.6436 20.9831 36.3282 20.897 34.8855 17.7953C34.8855 17.7953 34.0793 17.4937 33.9944 16.4168C33.9095 15.7275 34.0793 15.5983 34.2066 15.5983Z" fill="#01ACE4"/>
<path d="M51.3919 40.3687H49.5248C49.2702 40.3687 49.0581 40.4548 48.8884 40.6702L46.7243 43.0826L44.5602 40.6702C44.3905 40.4979 44.1783 40.3687 43.9237 40.3687H42.0567C40.3593 40.3687 38.8742 41.1872 37.9831 42.4364C37.0496 41.1872 35.522 40.3687 33.8247 40.3687H31.9576C31.703 40.3687 31.4909 40.4548 31.3211 40.6702L29.1571 43.0395L26.993 40.6271C26.8232 40.4548 26.6111 40.3687 26.3565 40.3687H24.4894C22.7921 40.3687 21.307 41.1872 20.4159 42.4364C19.5248 41.1872 18.0396 40.3687 16.3423 40.3687H14.4753C14.2207 40.3687 14.0085 40.4548 13.8388 40.6702L11.6747 43.0826L9.51062 40.6702C9.34089 40.4979 9.12873 40.3687 8.87413 40.3687H7.00708C4.20651 40.3687 2 42.4795 2 45.0643V51.1384C2 51.6123 2.3819 52 2.84866 52C3.31542 52 3.69732 51.6123 3.69732 51.1384V45.0643C3.69732 43.4273 5.14003 42.0487 6.92222 42.0487H8.40737L10.6139 44.5042L9.12873 48.5967C8.95899 49.0275 9.08629 49.5876 9.46819 49.8891L11.1231 51.0092C11.4201 51.2246 11.8444 51.1815 12.1415 50.9661L13.7963 49.5876C14.0934 49.3722 14.1782 48.9844 14.0509 48.6398L12.6082 44.5042L14.8147 42.0487H16.2999C18.0821 42.0487 19.5248 43.3842 19.5248 45.0643V51.1384C19.5248 51.6123 19.9067 52 20.3734 52C20.8402 52 21.2221 51.6123 21.2221 51.1384V45.0643C21.2221 43.4273 22.6648 42.0487 24.447 42.0487H25.9322L28.1387 44.5042L26.6535 48.5967C26.4838 49.0275 26.5686 49.5876 26.993 49.8891L28.6479 51.0092C28.9449 51.2246 29.3692 51.1815 29.6662 50.9661L31.3211 49.5876C31.6182 49.3722 31.703 48.9844 31.5757 48.6398L30.0906 44.5473L32.2971 42.0918H33.8247C35.6069 42.0918 37.0496 43.4273 37.0496 45.1073V51.1384C37.0496 51.6123 37.4315 52 37.8982 52C38.365 52 38.7469 51.6123 38.7469 51.1384V45.0643C38.7469 43.4273 40.1896 42.0487 41.9718 42.0487H43.4569L45.6635 44.5042L44.1783 48.5967C44.0086 49.0275 44.0934 49.5876 44.5178 49.8891L46.1726 51.0092H46.2151C46.5121 51.1815 46.9364 51.1815 47.191 50.923L48.8459 49.5445C49.143 49.3291 49.2278 48.9414 49.1005 48.5967L47.6154 44.5042L49.8219 42.0487H51.307C53.0892 42.0487 54.5319 43.3842 54.5319 45.0643V51.1384C54.5319 51.6123 54.9138 52 55.3806 52C55.8473 52 56.2292 51.6123 56.2292 51.1384V45.0643C56.3141 42.4795 54.1076 40.3687 51.3919 40.3687ZM12.2688 48.6398L11.5474 49.2429L10.8685 48.7691L11.5898 46.7874L12.2688 48.6398ZM29.836 48.6398L29.1146 49.2429L28.4357 48.7691L29.1571 46.8305L29.836 48.6398ZM47.3608 48.6398L46.6394 49.2429L45.9605 48.7691L46.6818 46.7874L47.3608 48.6398Z" fill="#01ACE4"/>
<path d="M14.4753 16.546C14.5602 17.7091 15.1542 18.5276 15.7483 19.0015C17.4032 22.1893 19.0581 22.7063 19.9491 22.7063C20.8402 22.7063 22.4951 22.2324 24.15 19.0015C24.7865 18.5276 25.3381 17.7091 25.423 16.546C25.4654 16.1152 25.4654 15.5552 25.2533 15.0382C25.3806 13.9613 25.3381 12.3673 24.447 11.1611C23.9803 10.558 23.1316 9.82567 21.6889 9.78259H18.2094C16.7242 9.82567 15.8756 10.558 15.4513 11.1611C14.5602 12.3673 14.5177 14.0043 14.645 15.0382C14.4329 15.5552 14.4329 16.1152 14.4753 16.546ZM16.3848 15.5983C16.4272 15.5983 16.4696 15.6413 16.4696 15.6413C16.4696 15.6413 15.4937 11.635 18.2518 11.5488H21.6465C24.4046 11.635 23.4286 15.6413 23.4286 15.6413C23.4286 15.6413 23.4711 15.5983 23.5135 15.5983C23.6408 15.5983 23.7681 15.7275 23.7257 16.4168C23.6408 17.4507 22.8346 17.7953 22.8346 17.7953C21.3494 20.897 20.0764 20.9831 19.9491 20.9831C19.8218 20.9831 18.5064 20.897 17.0637 17.7953C17.0637 17.7953 16.2575 17.4937 16.1726 16.4168C16.0877 15.7275 16.2575 15.5983 16.3848 15.5983Z" fill="#01ACE4"/>
<path d="M6.11603 34.6392C6.2009 35.8023 6.79496 36.6208 7.38902 37.0947C9.0439 40.2825 10.6988 40.7995 11.5899 40.7995C12.481 40.7995 14.1359 40.3256 15.7907 37.0947C16.4272 36.6208 16.9789 35.8023 17.0637 34.6392C17.1062 34.2084 17.1062 33.6483 16.894 33.1314C17.0213 32.0544 16.9789 30.4605 16.0878 29.2543C15.621 28.6512 14.7723 27.9188 13.3296 27.8758H12.0142V26.9711C12.0142 25.3341 13.4569 23.9556 15.2391 23.9556H16.7243L18.9308 26.4111L17.4456 30.5036C17.3183 30.8482 17.4032 31.2359 17.7002 31.4513L19.3551 32.8298C19.6521 33.0883 20.1189 33.0883 20.4159 32.8298L22.0708 31.4513C22.3678 31.2359 22.4527 30.8482 22.3254 30.5036L20.8402 26.4111L23.0468 23.9556H24.5319C26.3141 23.9556 27.7568 25.291 27.7568 26.9711V27.8758H27.29C25.8049 27.9188 24.9562 28.6512 24.5319 29.2543C23.6408 30.4605 23.5984 32.0975 23.7257 33.1314C23.5135 33.6483 23.5135 34.2084 23.556 34.6392C23.6408 35.8023 24.2349 36.6208 24.8289 37.0947C26.6111 40.3256 28.266 40.7995 29.1571 40.7995C30.0482 40.7995 31.7031 40.3256 33.358 37.0947C33.9944 36.6208 34.5461 35.8023 34.6309 34.6392C34.6734 34.2084 34.6734 33.6483 34.4612 33.1314C34.5885 32.0544 34.5461 30.4605 33.655 29.2543C33.1882 28.6512 32.3396 27.9188 30.8968 27.8758H29.8785V26.9711C29.8785 25.3341 31.3212 23.9556 33.1034 23.9556H34.5885L36.795 26.4111L35.3099 30.5036C35.1826 30.8482 35.2674 31.2359 35.5645 31.4513L37.2193 32.8298C37.5164 33.0883 37.9831 33.0883 38.2802 32.8298L39.9351 31.4513C40.2321 31.2359 40.3169 30.8482 40.1896 30.5036L38.7045 26.4111L40.911 23.9556H42.3962C44.1783 23.9556 45.6211 25.291 45.6211 26.9711V27.8758H44.8573C43.3721 27.9188 42.5235 28.6512 42.0991 29.2543C41.208 30.4605 41.1656 32.0975 41.2929 33.1314C41.0807 33.6483 41.0807 34.2084 41.1232 34.6392C41.208 35.8023 41.8021 36.6208 42.3962 37.0947C44.051 40.2825 45.7059 40.7995 46.597 40.7995C47.4881 40.7995 49.143 40.3256 50.7979 37.0947C51.4344 36.6208 51.986 35.8023 52.0709 34.6392C52.1133 34.2084 52.1133 33.6483 51.9011 33.1314C52.0284 32.0544 51.986 30.4605 51.0949 29.2543C50.6281 28.6512 49.7795 27.9188 48.3368 27.8758H47.4032V26.9711C47.4032 24.3864 45.1967 22.2324 42.481 22.2324H40.614C40.3594 22.2324 40.1472 22.3186 39.9775 22.534L37.8134 24.9464L35.6493 22.534C35.4796 22.3617 35.2674 22.2324 35.0128 22.2324H33.1458C31.3636 22.2324 29.7936 23.1371 28.9025 24.5156C28.0538 23.1371 26.4838 22.2324 24.6592 22.2324H22.7922C22.5376 22.2324 22.3254 22.3186 22.1557 22.534L19.9916 24.9464L17.8275 22.534C17.6578 22.3617 17.4456 22.2324 17.191 22.2324H15.324C12.6083 22.2324 10.4018 24.3433 10.4018 26.9711V27.8758H9.93499C8.44984 27.9188 7.60118 28.6512 7.17686 29.2543C6.28576 30.4605 6.24333 32.0975 6.37063 33.1314C6.0736 33.6483 6.0736 34.2084 6.11603 34.6392ZM50.2038 33.6914C50.2038 33.6914 50.2462 33.6483 50.2887 33.6483C50.416 33.6483 50.5433 33.7776 50.5008 34.4669C50.416 35.5007 49.6097 35.8454 49.6097 35.8454C48.1246 38.9471 46.8516 39.0332 46.7243 39.0332C46.597 39.0332 45.2816 38.9471 43.8389 35.8454C43.8389 35.8454 43.0327 35.5438 42.9478 34.4669C42.9054 33.7345 43.0327 33.6483 43.16 33.6483C43.2024 33.6483 43.2448 33.6914 43.2448 33.6914C43.2448 33.6914 42.2689 29.6851 45.027 29.5989H48.4216C51.1798 29.6851 50.2038 33.6914 50.2038 33.6914ZM38.4499 30.5467L37.771 31.1067L37.092 30.5467L37.771 28.7373L38.4499 30.5467ZM32.6366 33.6914C32.6366 33.6914 32.679 33.6483 32.7215 33.6483C32.8488 33.6483 32.9761 33.7776 32.9336 34.4669C32.8488 35.5007 32.0425 35.8454 32.0425 35.8454C30.5998 38.9901 29.3268 39.0763 29.1571 39.0763C29.0298 39.0763 27.7144 38.9901 26.2717 35.8885C26.2717 35.8885 25.4654 35.5869 25.3806 34.5099C25.3381 33.7776 25.4654 33.6914 25.5927 33.6914C25.6352 33.6914 25.6776 33.7345 25.6776 33.7345C25.6776 33.7345 24.6592 29.6851 27.4598 29.5989H30.8544C33.655 29.6851 32.6366 33.6914 32.6366 33.6914ZM20.6281 30.5467L19.9492 31.1067L19.2702 30.5467L19.9492 28.7373L20.6281 30.5467ZM8.02551 33.6914C8.06795 33.6914 8.11038 33.7345 8.11038 33.7345C8.11038 33.7345 7.13442 29.7282 9.89256 29.642H13.2872C16.0453 29.7282 15.0694 33.7345 15.0694 33.7345C15.0694 33.7345 15.1118 33.6914 15.1542 33.6914C15.2815 33.6914 15.4088 33.8207 15.3664 34.5099C15.2815 35.5438 14.4753 35.8885 14.4753 35.8885C13.0326 38.9901 11.7596 39.0763 11.6323 39.0763C11.505 39.0763 10.1896 38.9901 8.74687 35.8885C8.74687 35.8885 7.94065 35.5869 7.85578 34.5099C7.77092 33.7776 7.89821 33.6914 8.02551 33.6914Z" fill="#01ACE4"/>
</g>
<defs>
<clipPath id="clip0_4891_8901">
<rect width="55" height="43" fill="white" transform="translate(2 9)"/>
</clipPath>
</defs>
</svg>
