<svg width="61" height="60" viewBox="0 0 61 60" fill="none" xmlns="http://www.w3.org/2000/svg">
<g clip-path="url(#clip0_4891_8902)">
<path d="M21.8536 18.6472H29.6138V26.1312H23.2417C22.8448 26.1312 22.4885 26.3736 22.3419 26.7435C21.9314 27.7809 21.7239 28.8769 21.7239 30.0011C21.7239 34.8848 25.6976 38.8596 30.5824 38.8596C35.4672 38.8596 39.4398 34.8848 39.4398 30.0011C39.4398 28.8769 39.2323 27.7809 38.8219 26.7435C38.6753 26.3747 38.3189 26.1312 37.922 26.1312H31.5499V18.6472H39.3101C39.5841 18.6472 39.8457 18.5311 40.0295 18.3259C40.2133 18.1218 40.3013 17.8489 40.272 17.576C39.8717 13.8391 37.4078 10.7957 34.0814 9.52265C35.2473 8.53035 35.9882 7.05431 35.9882 5.40688C35.9882 2.42548 33.5627 0 30.5813 0C27.5999 0 25.1744 2.42548 25.1744 5.40575C25.1744 7.05206 25.9153 8.5281 27.0812 9.52152C23.7548 10.7957 21.2898 13.8391 20.8906 17.576C20.8613 17.8489 20.9493 18.1218 21.1331 18.3259C21.3157 18.5288 21.5785 18.6461 21.8536 18.6461V18.6472ZM37.5037 30C37.5037 33.817 34.3983 36.9224 30.5813 36.9224C26.7643 36.9224 23.6589 33.817 23.6589 30C23.6589 29.3392 23.7503 28.6908 23.9329 28.0662H37.2308C37.4123 28.6908 37.5037 29.3392 37.5037 30V30ZM27.1105 5.40575C27.1105 3.49107 28.6677 1.93497 30.5813 1.93497C32.4948 1.93497 34.0521 3.4922 34.0521 5.40575C34.0521 7.3193 32.496 8.87653 30.5824 8.87653H30.5802C28.6666 8.87653 27.1105 7.3193 27.1105 5.40575V5.40575ZM30.5802 10.8115H30.5824C34.2156 10.8115 37.3018 13.2821 38.1577 16.71H23.0049C23.8608 13.2821 26.947 10.8115 30.5802 10.8115ZM59.6138 26.1301H51.8536V18.6461H59.6138C59.8878 18.6461 60.1494 18.53 60.3332 18.3248C60.517 18.1207 60.605 17.8478 60.5757 17.5749C60.1754 13.838 57.7115 10.7946 54.3851 9.52152C55.551 8.52922 56.2919 7.05319 56.2919 5.40575C56.2919 2.42436 53.8664 0 50.885 0C47.9036 0 45.4781 2.42548 45.4781 5.40575C45.4781 7.05206 46.219 8.5281 47.3849 9.52152C44.0585 10.7957 41.5935 13.8391 41.1943 17.576C41.165 17.8489 41.253 18.1218 41.4368 18.3259C41.6206 18.53 41.8822 18.6472 42.1562 18.6472H49.9164V26.1312H46.0656C45.7781 26.1312 45.5052 26.2597 45.3214 26.4807C45.1376 26.7017 45.062 26.9938 45.1139 27.2768C45.2808 28.1721 45.3654 29.0889 45.3654 30.0011C45.3654 38.1537 38.7328 44.7863 30.5802 44.7863C22.4276 44.7863 15.795 38.1515 15.795 30C15.795 29.0878 15.8796 28.1722 16.0464 27.2757C16.0983 26.9927 16.0239 26.7017 15.839 26.4796C15.6552 26.2586 15.3823 26.1301 15.0947 26.1301H11.244V18.6461H19.0042C19.2782 18.6461 19.5398 18.53 19.7236 18.3248C19.9074 18.1207 19.9953 17.8478 19.966 17.5749C19.5657 13.838 17.1019 10.7946 13.7754 9.52152C14.9414 8.52922 15.6822 7.05319 15.6822 5.40575C15.6833 2.42548 13.2579 0 10.2776 0C7.29733 0 4.87072 2.42436 4.87072 5.40575C4.87072 7.05206 5.61156 8.52922 6.7775 9.52152C3.45106 10.7957 0.987238 13.8391 0.586937 17.576C0.557619 17.8489 0.645572 18.1218 0.829373 18.3259C1.01317 18.53 1.27478 18.6472 1.54879 18.6472H9.30898V26.1312H1.54879C1.0143 26.1312 0.581299 26.5642 0.581299 27.0987V32.9013C0.581299 33.3016 0.828245 33.6602 1.20148 33.8046L5.57096 35.4858C6.21708 38.4503 7.37514 41.2423 9.01806 43.8019L7.11579 48.0846C6.95341 48.4499 7.03347 48.8784 7.31537 49.1614L11.4187 53.2648C11.7018 53.5478 12.1303 53.6268 12.4956 53.4644L16.7794 51.561C19.3391 53.2039 22.1321 54.362 25.0932 55.0081L26.7756 59.3787C26.92 59.7519 27.2785 59.9989 27.6788 59.9989H33.4815C33.8818 59.9989 34.2404 59.7519 34.3847 59.3787L36.066 55.0092C39.0305 54.3631 41.8224 53.205 44.3821 51.5621L48.6647 53.4644C49.0301 53.6268 49.4586 53.5467 49.7416 53.2648L53.845 49.1614C54.128 48.8784 54.2069 48.451 54.0446 48.0846L52.1412 43.8008C53.7841 41.2411 54.9421 38.4492 55.5883 35.4869L59.9589 33.8046C60.3321 33.6602 60.579 33.3016 60.579 32.9013V27.0987C60.5813 26.5642 60.1483 26.1312 59.6138 26.1312V26.1301ZM47.4142 5.40462C47.4142 3.48995 48.9715 1.93385 50.885 1.93385C52.7986 1.93385 54.3558 3.49107 54.3558 5.40462C54.3558 7.31817 52.7997 8.8754 50.8861 8.8754H50.8839C48.9703 8.8754 47.4142 7.31817 47.4142 5.40462V5.40462ZM50.8839 10.8104H50.8861C54.5193 10.8104 57.6055 13.281 58.4614 16.7089H43.3086C44.1633 13.281 47.2496 10.8104 50.8839 10.8104ZM6.80457 5.40462C6.80457 3.48995 8.36179 1.93385 10.2753 1.93385C12.1889 1.93385 13.7461 3.49107 13.7461 5.40462C13.7461 7.31817 12.19 8.8754 10.2765 8.8754H10.2742C8.36179 8.8754 6.80457 7.31817 6.80457 5.40462V5.40462ZM10.2742 10.8104H10.2765C13.9096 10.8104 16.9959 13.281 17.8517 16.7089H2.70007C3.5548 13.281 6.64106 10.8104 10.2753 10.8104H10.2742ZM58.6441 32.2349L54.3998 33.8677C54.0897 33.9872 53.8619 34.2578 53.7976 34.5849C53.1921 37.6644 51.9957 40.5533 50.2389 43.1693C50.054 43.4456 50.0235 43.7974 50.1577 44.1019L52.0047 48.2605L48.8418 51.4234L44.6843 49.5764C44.3798 49.4411 44.028 49.4715 43.7518 49.6576C41.1368 51.4133 38.2479 52.6119 35.165 53.2163C34.8391 53.2806 34.5674 53.5084 34.4479 53.8185L32.8151 58.0605H28.3407L26.708 53.8162C26.5884 53.5061 26.3178 53.2783 25.9908 53.2141C22.9113 52.6085 20.0224 51.4121 17.4063 49.6553C17.1301 49.4704 16.7783 49.44 16.4738 49.5741L12.3152 51.4212L9.15224 48.2582L10.9993 44.1007C11.1346 43.7963 11.1041 43.4445 10.9181 43.1682C9.16239 40.5533 7.96375 37.6644 7.35935 34.5815C7.29507 34.2556 7.0673 33.9838 6.75721 33.8654L2.51515 32.2327V28.0628H13.9716C13.8972 28.7044 13.86 29.3516 13.86 29.9966C13.86 39.2171 21.3609 46.7179 30.5813 46.7179C39.7995 46.7179 47.3015 39.2171 47.3015 29.9966C47.3015 29.3516 47.2643 28.7044 47.1898 28.0628H58.6452V32.2338L58.6441 32.2349Z" fill="#01ACE4"/>
</g>
<defs>
<clipPath id="clip0_4891_8902">
<rect width="60" height="60" fill="white" transform="translate(0.581299)"/>
</clipPath>
</defs>
</svg>
