<svg width="22" height="26" viewBox="0 0 22 26" fill="none" xmlns="http://www.w3.org/2000/svg">
<path d="M0.666661 2.20834V23.7917C0.666661 25.4375 2.47916 26.4375 3.87499 25.5417L20.8333 14.75C21.1302 14.5621 21.3748 14.3022 21.5442 13.9944C21.7137 13.6866 21.8026 13.3409 21.8026 12.9896C21.8026 12.6382 21.7137 12.2926 21.5442 11.9848C21.3748 11.677 21.1302 11.4171 20.8333 11.2292L3.87499 0.458341C3.56076 0.255101 3.1975 0.140439 2.82353 0.126453C2.44956 0.112467 2.07875 0.199674 1.75021 0.378876C1.42167 0.558077 1.14759 0.822629 0.956886 1.14462C0.766177 1.46661 0.665909 1.83411 0.666661 2.20834V2.20834Z" fill="#054FA5"/>
</svg>
